<svg width="28" height="28" viewBox="0 0 28 28" fill="none" xmlns="http://www.w3.org/2000/svg">
<path d="M13.5704 7.22488C9.7395 7.22488 6.64948 10.3156 6.64948 14.1473C6.64948 17.9791 9.7395 21.0698 13.5704 21.0698C17.4013 21.0698 20.4913 17.9791 20.4913 14.1473C20.4913 10.3156 17.4013 7.22488 13.5704 7.22488ZM13.5704 18.6478C11.0948 18.6478 9.0709 16.6295 9.0709 14.1473C9.0709 11.6651 11.0887 9.64684 13.5704 9.64684C16.052 9.64684 18.0699 11.6651 18.0699 14.1473C18.0699 16.6295 16.046 18.6478 13.5704 18.6478ZM22.3887 6.94172C22.3887 7.83941 21.6659 8.55635 20.7744 8.55635C19.8769 8.55635 19.1601 7.83338 19.1601 6.94172C19.1601 6.05005 19.8829 5.32708 20.7744 5.32708C21.6659 5.32708 22.3887 6.05005 22.3887 6.94172ZM26.9725 8.58045C26.8701 6.41756 26.3762 4.50168 24.792 2.9232C23.2139 1.34471 21.2984 0.850675 19.136 0.742229C16.9074 0.615709 10.2274 0.615709 7.99873 0.742229C5.84234 0.84465 3.92689 1.33868 2.34273 2.91717C0.758571 4.49566 0.270673 6.41154 0.162252 8.57443C0.0357598 10.8036 0.0357598 17.4851 0.162252 19.7142C0.26465 21.8771 0.758571 23.793 2.34273 25.3715C3.92689 26.95 5.83632 27.444 7.99873 27.5524C10.2274 27.679 16.9074 27.679 19.136 27.5524C21.2984 27.45 23.2139 26.956 24.792 25.3715C26.3702 23.793 26.8641 21.8771 26.9725 19.7142C27.099 17.4851 27.099 10.8096 26.9725 8.58045ZM24.0933 22.1061C23.6235 23.2869 22.714 24.1967 21.5273 24.6726C19.7504 25.3775 15.534 25.2148 13.5704 25.2148C11.6068 25.2148 7.38434 25.3715 5.61345 24.6726C4.43286 24.2027 3.52332 23.2929 3.04747 22.1061C2.34273 20.3288 2.50536 16.1114 2.50536 14.1473C2.50536 12.1833 2.34875 7.9599 3.04747 6.18862C3.5173 5.00777 4.42684 4.09802 5.61345 3.62207C7.39036 2.91717 11.6068 3.07984 13.5704 3.07984C15.534 3.07984 19.7565 2.92319 21.5273 3.62207C22.7079 4.092 23.6175 5.00174 24.0933 6.18862C24.7981 7.96593 24.6354 12.1833 24.6354 14.1473C24.6354 16.1114 24.7981 20.3348 24.0933 22.1061Z" fill="white"/>
</svg>
