<svg width="85" height="51" viewBox="0 0 85 51" fill="none" xmlns="http://www.w3.org/2000/svg">
<rect width="82" height="51" fill="#4D4D4D"/>
<path d="M7.36 11.492C8.04267 11.492 8.65067 11.652 9.184 11.972C9.71733 12.2813 10.1333 12.7133 10.432 13.268C10.7307 13.812 10.88 14.4253 10.88 15.108V15.316C10.88 15.9987 10.7307 16.6173 10.432 17.172C10.1333 17.7267 9.71733 18.164 9.184 18.484C8.65067 18.7933 8.04267 18.948 7.36 18.948H4.72V22.5H1.184V11.492H7.36ZM4.72 16.372H6.176C6.54933 16.372 6.82667 16.276 7.008 16.084C7.2 15.892 7.296 15.6307 7.296 15.3V15.172C7.296 14.8307 7.2 14.5693 7.008 14.388C6.82667 14.196 6.54933 14.1 6.176 14.1H4.72V16.372ZM13.3709 11.492H16.9069V19.684H22.5549V22.5H13.3709V11.492ZM32.0588 22.5L31.5948 20.948H27.7388L27.2748 22.5H23.6588L27.6748 11.492H31.7868L35.8028 22.5H32.0588ZM28.4748 18.484H30.8588L29.7068 14.564H29.6428L28.4748 18.484ZM43.2485 22.5H39.7125V18.228L35.3445 11.492H39.4085L41.5205 15.156H41.5845L43.6965 11.492H47.5525L43.2485 18.228V22.5ZM5.824 35.86H11.056V38.5H0.384V37.364L5.488 30.132H0.768V27.492H10.928V28.628L5.824 35.86ZM18.8429 27.3C20.7415 27.3 22.2082 27.7853 23.2429 28.756C24.2775 29.7267 24.7949 31.14 24.7949 32.996C24.7949 34.852 24.2775 36.2653 23.2429 37.236C22.2082 38.2067 20.7415 38.692 18.8429 38.692C16.9442 38.692 15.4775 38.212 14.4429 37.252C13.4189 36.2813 12.9069 34.8627 12.9069 32.996C12.9069 31.1293 13.4189 29.716 14.4429 28.756C15.4775 27.7853 16.9442 27.3 18.8429 27.3ZM18.8429 29.94C18.0855 29.94 17.5095 30.1693 17.1149 30.628C16.7202 31.0867 16.5229 31.7053 16.5229 32.484V33.508C16.5229 34.2867 16.7202 34.9053 17.1149 35.364C17.5095 35.8227 18.0855 36.052 18.8429 36.052C19.6002 36.052 20.1762 35.8227 20.5709 35.364C20.9762 34.9053 21.1789 34.2867 21.1789 33.508V32.484C21.1789 31.7053 20.9762 31.0867 20.5709 30.628C20.1762 30.1693 19.6002 29.94 18.8429 29.94ZM35.211 38.5L30.587 33.156V38.5H27.339V27.492H30.427L35.051 32.916V27.492H38.299V38.5H35.211ZM41.3071 27.492H50.8271V30.132H44.8431V31.652H49.9631V34.18H44.8431V35.86H50.9391V38.5H41.3071V27.492Z" fill="white"/>
<rect x="62.5498" y="13.0836" width="26.357" height="7.40367" transform="rotate(45 62.5498 13.0836)" fill="#DE05FF"/>
<rect width="26.357" height="7.40367" transform="matrix(-0.707107 0.707107 0.707107 0.707107 75.9395 12.9138)" fill="#DE05FF"/>
<path d="M68.8528 12.9138L71.1611 10.4706H66.5446L68.8528 12.9138Z" fill="#DE05FF"/>
<path d="M69.1487 38.0862L71.457 40.5295H66.8405L69.1487 38.0862Z" fill="#DE05FF"/>
<path d="M55.8223 25.0557L53.3791 22.7475V27.364L55.8223 25.0557Z" fill="#DE05FF"/>
<path d="M82.1787 25.0557L84.6219 22.7475V27.364L82.1787 25.0557Z" fill="#DE05FF"/>
</svg>
