<?xml version="1.0" standalone="no"?>
<!DOCTYPE svg PUBLIC "-//W3C//DTD SVG 20010904//EN"
 "http://www.w3.org/TR/2001/REC-SVG-20010904/DTD/svg10.dtd">
<svg version="1.0" xmlns="http://www.w3.org/2000/svg"
 width="1052.000000pt" height="592.000000pt" viewBox="0 0 1052.000000 592.000000"
 preserveAspectRatio="xMidYMid meet">

<g transform="translate(0.000000,592.000000) scale(0.100000,-0.100000)"
fill="#000000" stroke="none">
<path d="M3387 4863 c-5 -12 -14 -23 -18 -23 -4 0 -14 -6 -21 -13 -7 -6 -26
-17 -43 -22 -16 -6 -39 -26 -52 -45 -12 -19 -30 -46 -41 -60 -24 -32 -17 -114
13 -152 23 -28 97 -68 128 -68 10 0 28 -5 39 -11 11 -6 23 -7 27 -3 8 11 69
11 98 1 25 -9 36 -49 37 -137 0 -113 -28 -171 -92 -185 -17 -3 -36 -13 -43
-21 -10 -13 15 -14 202 -13 186 2 210 4 184 15 -16 7 -40 13 -52 14 -36 0 -73
18 -73 35 0 9 -7 18 -15 21 -8 4 -15 14 -15 24 0 10 -9 22 -20 25 -11 3 -20
12 -20 19 0 7 -7 27 -16 45 -12 23 -13 35 -5 45 8 10 7 17 -4 26 -18 15 -20
71 -3 88 10 10 10 17 0 32 -10 16 -9 26 6 52 10 18 24 34 32 36 7 2 25 11 39
22 26 18 27 17 50 -1 13 -10 29 -19 36 -19 7 0 17 -6 23 -13 16 -19 145 -12
180 10 41 26 47 34 60 79 7 23 19 47 27 54 22 18 18 40 -15 84 -17 22 -30 36
-30 32 0 -4 -12 6 -26 23 -24 29 -29 31 -97 31 -40 -1 -90 -7 -112 -15 -26
-10 -41 -11 -46 -4 -3 6 -9 10 -13 10 -3 -1 -7 0 -8 0 -2 1 -68 3 -146 4 -142
2 -144 2 -155 -22z m258 -33 c3 -5 1 -10 -4 -10 -6 0 -11 5 -11 10 0 6 2 10 4
10 3 0 8 -4 11 -10z m295 -40 c0 -5 -2 -10 -4 -10 -3 0 -8 5 -11 10 -3 6 -1
10 4 10 6 0 11 -4 11 -10z m-380 -301 c0 -6 -4 -7 -10 -4 -5 3 -10 11 -10 16
0 6 5 7 10 4 6 -3 10 -11 10 -16z"/>
<path d="M4406 4866 c3 -12 18 -43 33 -71 26 -49 27 -50 78 -53 l53 -3 32 65
c18 36 28 69 24 73 -4 4 -57 8 -117 9 -106 0 -109 -1 -103 -20z"/>
<path d="M6141 4788 c-19 -21 -31 -41 -29 -44 3 -3 36 -4 74 -2 l67 3 -26 30
c-14 17 -27 25 -27 18 0 -7 -7 -10 -15 -7 -11 5 -13 10 -5 19 6 7 7 15 3 17
-4 3 -23 -13 -42 -34z m64 -28 c-3 -5 -11 -10 -16 -10 -6 0 -7 5 -4 10 3 6 11
10 16 10 6 0 7 -4 4 -10z"/>
<path d="M6686 4698 c-20 -23 -45 -57 -56 -75 -17 -29 -18 -33 -3 -42 14 -7
13 -10 -8 -21 -23 -13 -23 -12 -9 5 13 16 13 18 0 13 -8 -3 -25 -1 -37 3 -13
5 -22 5 -20 1 1 -4 -2 -8 -8 -10 -5 -1 -11 7 -11 18 -1 11 -4 23 -8 27 -3 3
-6 -26 -6 -65 0 -59 3 -70 15 -66 8 4 15 1 15 -5 0 -6 -7 -11 -15 -11 -10 0
-15 -11 -15 -35 0 -24 5 -35 15 -35 10 0 15 10 15 28 1 35 38 82 50 63 4 -8
17 -12 29 -8 23 6 22 2 -14 -48 -12 -16 -25 -38 -28 -48 -5 -14 -2 -16 18 -11
13 3 32 1 42 -4 11 -6 24 -7 35 -1 21 11 32 -18 23 -61 -6 -25 -3 -30 19 -36
36 -9 45 2 39 41 -8 47 2 71 22 55 12 -10 18 -10 30 0 8 6 23 9 36 5 14 -5 25
-2 30 6 6 10 9 4 9 -17 0 -20 6 -34 16 -38 14 -5 13 -9 -5 -24 -22 -17 -21
-17 19 -17 27 -1 35 2 25 8 -18 10 -20 75 -3 112 9 21 17 25 35 20 13 -3 23
-1 23 5 0 6 9 6 25 0 21 -8 25 -7 25 9 0 10 7 22 16 25 14 5 14 9 3 22 -9 12
-10 20 -2 33 10 16 8 16 -23 7 -20 -6 -34 -17 -34 -27 0 -9 -7 -16 -15 -16 -9
0 -14 5 -12 12 3 6 -4 12 -14 12 -13 1 -17 -3 -12 -10 3 -7 -3 -3 -15 7 -17
15 -22 16 -23 5 -1 -8 -5 -3 -9 11 -5 16 -8 19 -9 8 -1 -14 -4 -15 -24 -5 -12
7 -36 24 -52 40 -23 21 -26 27 -12 27 21 0 21 3 -3 48 -25 48 -46 73 -56 71
-21 -4 -35 2 -29 11 4 6 11 7 17 4 7 -4 8 -2 4 4 -12 20 -23 14 -60 -30z m74
-14 c0 -3 -6 -12 -14 -19 -17 -18 -29 -8 -13 11 12 14 27 18 27 8z m165 -274
c-3 -5 -11 -10 -16 -10 -6 0 -7 5 -4 10 3 6 11 10 16 10 6 0 7 -4 4 -10z"/>
<path d="M4193 4570 c-88 -53 -81 -180 11 -224 76 -36 167 10 181 93 18 109
-98 189 -192 131z m85 -107 c-2 -61 -6 -78 -18 -78 -12 0 -16 17 -18 78 -3 72
-2 77 18 77 20 0 21 -5 18 -77z"/>
<path d="M4257 4523 c-11 -10 -8 -123 3 -123 6 0 10 28 10 65 0 65 -1 71 -13
58z"/>
<path d="M3668 4518 c-64 -29 -94 -58 -46 -43 18 6 116 60 127 71 13 12 -22 0
-81 -28z"/>
<path d="M4730 4515 c-17 -20 -5 -32 15 -15 12 10 19 10 27 2 9 -9 4 -22 -20
-51 -18 -22 -32 -42 -32 -45 0 -3 18 -6 40 -6 22 0 40 5 40 10 0 6 -9 10 -20
10 -11 0 -20 5 -20 10 0 6 4 10 8 10 7 0 32 43 32 55 0 9 -33 35 -44 35 -8 0
-19 -7 -26 -15z"/>
<path d="M5237 4523 c-14 -13 -6 -24 13 -18 14 5 20 2 20 -9 0 -9 -7 -16 -15
-16 -22 0 -18 -17 6 -23 30 -8 18 -32 -15 -30 -33 2 -34 -15 -1 -23 39 -10 54
10 50 63 -4 44 -16 62 -41 63 -6 0 -14 -3 -17 -7z"/>
<path d="M5738 4505 c-8 -16 -19 -40 -22 -52 -6 -20 -4 -23 18 -23 14 0 29 -7
34 -17 9 -15 11 -14 21 5 6 11 8 28 5 36 -7 18 -24 22 -24 6 0 -5 -7 -10 -15
-10 -18 0 -18 5 -4 31 5 11 9 28 7 37 -3 13 -8 10 -20 -13z"/>
<path d="M6220 4491 c0 -25 4 -30 28 -33 33 -4 37 -33 5 -33 -31 -1 -30 -19 1
-23 17 -2 28 3 36 17 14 27 -3 61 -30 61 -11 0 -20 5 -20 10 0 6 9 10 19 10
11 0 23 5 26 10 4 6 -8 10 -29 10 -33 0 -36 -2 -36 -29z"/>
<path d="M3739 4387 c-67 -51 -38 -161 41 -159 86 2 121 90 63 154 -19 21 -80
24 -104 5z m86 -35 c24 -21 18 -59 -11 -79 -24 -15 -29 -15 -53 -2 -31 17 -40
61 -16 81 9 7 21 18 28 24 11 11 15 9 52 -24z"/>
<path d="M6540 4381 c0 -7 -4 -9 -10 -6 -5 3 -10 2 -10 -3 0 -8 52 -25 56 -19
1 1 -7 11 -17 21 -11 12 -19 14 -19 7z"/>
<path d="M5022 3905 c4 -4 3 -18 -2 -31 -14 -36 -2 -54 35 -54 19 0 37 -4 40
-10 11 -19 57 -11 62 10 4 14 14 20 34 20 23 0 30 6 35 26 4 16 2 29 -6 34
-15 9 -207 14 -198 5z"/>
<path d="M4811 3785 l-20 -35 22 1 c12 0 16 3 10 6 -10 3 -9 11 2 34 21 41 11
36 -14 -6z"/>
<path d="M5472 3803 c2 -10 14 -19 26 -21 19 -3 23 1 20 15 -2 10 -14 19 -26
21 -19 3 -23 -1 -20 -15z"/>
<path d="M4620 3791 c0 -12 29 -35 36 -28 11 10 -5 37 -21 37 -8 0 -15 -4 -15
-9z"/>
<path d="M5190 3768 c-47 -47 -37 -63 31 -52 46 8 79 34 79 62 0 13 -9 18 -40
18 -33 1 -47 -4 -70 -28z"/>
<path d="M4697 3754 c-10 -11 3 -24 24 -24 23 0 25 15 3 24 -19 7 -19 7 -27 0z"/>
<path d="M4970 3711 c0 -6 5 -13 10 -16 6 -3 10 1 10 9 0 9 -4 16 -10 16 -5 0
-10 -4 -10 -9z"/>
<path d="M5181 3577 c-7 -9 5 -11 46 -8 33 2 51 6 43 11 -19 12 -78 10 -89 -3z"/>
<path d="M4939 3564 c-10 -12 -1 -14 52 -14 49 0 60 3 51 12 -17 17 -89 19
-103 2z"/>
<path d="M6461 3421 c-12 -8 -12 -12 -2 -25 7 -8 18 -14 24 -12 7 1 9 1 5 -1
-13 -8 -9 -23 7 -23 8 0 19 9 25 21 20 36 -21 64 -59 40z"/>
<path d="M6261 3386 c-15 -18 2 -56 24 -56 10 0 15 -10 15 -28 0 -16 9 -38 21
-51 l21 -22 -21 -23 c-20 -22 -29 -56 -13 -56 4 0 13 9 20 20 17 28 29 25 37
-8 5 -25 10 -28 35 -24 17 2 37 -1 45 -8 13 -11 15 -8 16 16 1 16 1 32 0 37
-2 14 19 7 39 -13 28 -28 25 -10 -5 35 -23 32 -24 39 -12 54 39 45 30 73 -31
102 -26 12 -55 25 -65 30 -10 6 -24 6 -35 0 -11 -6 -24 -6 -33 0 -21 13 -45
11 -58 -5z m170 -26 c20 -11 26 -54 8 -65 -6 -5 -4 -11 7 -19 15 -12 15 -13
-1 -29 -9 -9 -27 -17 -39 -17 -26 0 -51 24 -42 38 3 6 -1 15 -9 22 -22 18 -18
46 7 64 26 19 42 20 69 6z m-128 -7 c-7 -2 -19 -2 -25 0 -7 3 -2 5 12 5 14 0
19 -2 13 -5z"/>
<path d="M6380 3310 c0 -5 5 -10 10 -10 6 0 10 5 10 10 0 6 -4 10 -10 10 -5 0
-10 -4 -10 -10z"/>
<path d="M6383 3268 c2 -7 10 -13 17 -13 7 0 15 6 18 13 2 7 -5 12 -18 12 -13
0 -20 -5 -17 -12z"/>
<path d="M5966 3325 c-10 -8 -24 -11 -30 -7 -13 8 -58 3 -69 -8 -5 -4 -32 -6
-60 -3 -41 3 -48 1 -34 -7 22 -14 217 -14 231 0 7 7 5 15 -4 24 -13 13 -18 13
-34 1z"/>
<path d="M3619 3285 c-2 -24 3 -102 7 -117 3 -10 10 -18 16 -18 13 0 3 119
-12 134 -6 6 -10 6 -11 1z"/>
<path d="M7150 3246 c0 -23 -4 -26 -31 -24 -40 4 -50 -18 -14 -32 22 -8 24
-13 15 -29 -5 -11 -10 -24 -10 -30 0 -16 26 -13 40 4 12 14 15 14 30 0 20 -18
50 -20 50 -3 0 6 -7 19 -16 29 -15 17 -15 18 9 24 28 7 42 30 26 41 -6 3 -21
3 -34 0 -19 -5 -24 -2 -27 16 -5 34 -38 37 -38 4z m33 -50 c7 -16 -1 -26 -20
-26 -7 0 -13 9 -13 20 0 23 25 27 33 6z"/>
<path d="M7357 3263 c-4 -3 -7 -14 -7 -24 0 -13 -7 -17 -27 -16 -37 3 -44 -28
-8 -37 24 -6 25 -8 10 -29 -8 -12 -15 -25 -15 -29 0 -15 39 -8 49 9 9 17 10
17 28 0 11 -9 25 -17 31 -17 15 0 16 37 1 46 -8 4 -2 12 15 21 35 19 28 39
-13 35 -18 -1 -30 2 -27 7 15 23 -18 53 -37 34z m33 -73 c0 -11 -6 -20 -14
-20 -18 0 -29 16 -21 30 11 18 35 11 35 -10z"/>
<path d="M5720 3162 c-23 -19 -24 -24 -25 -145 0 -99 3 -129 15 -141 23 -23
149 -39 312 -40 140 -1 148 0 170 22 21 20 23 32 23 120 1 110 -9 139 -57 174
-31 22 -43 23 -223 26 -177 4 -192 2 -215 -16z m360 -52 c17 -17 20 -33 20
-109 0 -116 -5 -121 -113 -121 -98 0 -215 16 -234 31 -16 14 -18 170 -3 200
10 17 23 19 160 19 137 0 152 -2 170 -20z m75 -110 c0 -8 -10 -16 -22 -18 -22
-3 -32 16 -16 32 12 11 38 2 38 -14z"/>
<path d="M5870 3005 c0 -36 3 -65 6 -65 12 0 114 61 114 68 0 8 -96 62 -110
62 -6 0 -10 -28 -10 -65z"/>
<path d="M3542 3118 c-7 -7 -12 -15 -12 -19 0 -4 -5 -20 -10 -35 -10 -25 -11
-26 -29 -10 -26 23 -76 18 -76 -8 0 -13 12 -23 39 -32 59 -21 64 -29 72 -115
l7 -79 39 0 c37 0 40 -2 34 -22 -17 -59 -18 -115 -4 -121 29 -11 40 9 42 79
l1 69 39 3 39 3 -7 -69 c-5 -54 -4 -71 7 -81 12 -9 18 -8 32 5 9 9 14 22 11
29 -2 6 -7 36 -11 67 l-7 54 42 14 c23 8 45 20 48 28 3 8 1 42 -5 76 l-10 60
34 35 c18 19 33 38 33 43 0 18 -31 20 -55 4 -24 -16 -25 -16 -25 9 l0 25 -128
0 c-86 0 -132 -4 -140 -12z m195 -40 c45 -42 20 -118 -38 -118 -32 0 -69 40
-69 76 0 30 33 64 62 64 12 0 32 -10 45 -22z m-51 -186 c-10 -2 -22 0 -28 6
-6 6 0 7 19 4 21 -5 23 -7 9 -10z m10 -33 c3 -5 1 -9 -5 -9 -17 0 -41 12 -41
20 0 10 38 1 46 -11z"/>
<path d="M3670 3045 c-7 -9 -10 -25 -6 -41 5 -20 12 -25 34 -22 19 2 28 9 30
26 6 43 -33 68 -58 37z"/>
<path d="M2690 3066 l0 -26 108 0 c148 0 152 -3 152 -124 0 -131 1 -130 -143
-124 -115 4 -117 4 -117 -18 0 -21 5 -22 126 -29 231 -14 254 -1 254 146 0
102 -12 135 -62 171 -30 21 -46 23 -175 27 l-143 3 0 -26z m315 -146 c4 -6 1
-18 -6 -26 -11 -13 -14 -13 -27 0 -8 8 -11 19 -8 25 9 14 33 14 41 1z"/>
<path d="M7025 2939 c-6 -45 -2 -70 9 -58 11 11 18 109 8 109 -5 0 -13 -23
-17 -51z"/>
<path d="M2720 2921 c0 -33 4 -62 8 -65 5 -3 32 9 61 25 45 26 51 33 40 44
-18 17 -87 55 -99 55 -6 0 -10 -27 -10 -59z"/>
<path d="M4422 2884 c-21 -14 -22 -22 -22 -148 0 -95 4 -136 13 -144 23 -19
120 -32 282 -39 l163 -6 31 31 c30 30 31 33 31 124 0 112 -17 149 -83 178 -36
17 -66 20 -217 20 -143 0 -180 -3 -198 -16z m356 -50 c20 -14 22 -23 22 -108
0 -133 4 -130 -163 -123 -82 3 -147 11 -164 19 -27 13 -28 15 -31 105 -4 125
-7 123 171 123 113 0 147 -3 165 -16z m79 -110 c8 -22 -18 -37 -36 -20 -7 8
-10 19 -7 25 10 16 36 13 43 -5z"/>
<path d="M4570 2725 c0 -36 3 -65 8 -65 17 0 112 62 107 70 -6 10 -94 60 -106
60 -5 0 -9 -29 -9 -65z"/>
<path d="M6887 2853 c-3 -5 -8 -27 -12 -51 -5 -32 -13 -45 -30 -52 -13 -5 -26
-18 -30 -29 -7 -22 10 -61 25 -61 6 0 10 -6 10 -14 0 -8 19 -22 43 -31 39 -15
43 -19 39 -45 -3 -23 -10 -29 -40 -35 -21 -4 -55 -15 -77 -24 -34 -15 -43 -26
-57 -68 -10 -28 -18 -58 -18 -67 0 -26 77 -55 176 -68 139 -18 324 13 341 58
3 9 -2 40 -11 70 -19 60 -38 75 -128 98 -42 10 -54 18 -56 36 -3 20 -1 21 27
15 28 -6 31 -4 31 19 0 18 5 26 18 26 43 0 59 69 22 92 -12 8 -20 24 -20 41 0
15 -7 41 -15 56 -12 24 -22 29 -67 34 -72 9 -166 9 -171 0z m138 -47 c12 -18
13 -29 5 -52 -13 -33 -26 -44 -57 -44 -21 0 -53 33 -53 56 0 6 9 23 21 38 26
33 63 34 84 2z m-10 -156 c-3 -5 -16 -10 -28 -10 -18 0 -19 2 -7 10 20 13 43
13 35 0z m3 -60 c6 0 12 -12 12 -26 0 -23 -3 -25 -32 -22 -28 3 -34 7 -36 32
-3 26 -1 28 20 23 13 -4 29 -7 36 -7z"/>
<path d="M6956 2775 c-10 -27 -7 -42 9 -49 27 -10 46 5 43 33 -4 31 -42 42
-52 16z"/>
<path d="M5710 2774 c-14 -40 -19 -64 -12 -74 15 -25 61 -42 158 -58 79 -14
105 -14 184 -3 96 14 149 30 168 54 12 14 6 47 -18 98 -11 24 -16 26 -42 18
-16 -4 -55 -6 -86 -4 -32 2 -102 7 -157 10 -55 3 -116 8 -136 11 l-37 6 -22
-58z"/>
<path d="M2690 2642 l0 -89 58 -7 c104 -12 258 13 299 48 l27 23 -21 54 c-14
36 -26 52 -35 49 -17 -6 -206 -3 -275 5 l-53 6 0 -89z"/>
<path d="M4430 2530 c-26 -49 -38 -96 -28 -114 36 -64 335 -83 468 -30 46 19
52 31 38 81 -17 64 -25 74 -53 63 -24 -9 -329 3 -387 16 -20 4 -29 0 -38 -16z"/>
<path d="M5301 2429 c-18 -30 -21 -31 -21 -11 0 26 -6 28 -27 7 -14 -14 -17
-14 -33 0 -10 9 -26 15 -34 13 -14 -3 -14 -6 -1 -31 12 -23 12 -38 4 -80 -11
-49 -11 -52 16 -74 24 -21 26 -27 16 -55 -6 -17 -11 -33 -11 -34 0 -10 24 -2
46 15 32 25 69 17 87 -20 12 -26 16 -28 27 -14 10 12 10 15 -4 15 -9 0 -16 5
-16 10 0 6 5 10 10 10 6 0 8 11 4 25 -4 17 -1 32 11 45 9 10 17 24 19 32 1 7
5 18 9 25 5 9 0 10 -20 3 -57 -16 -58 -16 -55 9 2 20 0 22 -13 11 -8 -7 -21
-10 -29 -7 -10 4 -13 1 -9 -9 4 -10 -2 -14 -23 -14 -15 0 -24 3 -21 7 4 3 0
14 -8 23 -28 31 4 67 34 38 10 -11 16 -8 32 11 12 14 19 18 20 10 1 -8 5 4 10
25 12 51 5 56 -20 15z m44 -159 c-3 -5 -12 -10 -18 -10 -7 0 -6 4 3 10 19 12
23 12 15 0z m-48 -11 c-14 -8 -22 -8 -30 0 -8 8 -3 11 19 11 25 -1 27 -2 11
-11z"/>
<path d="M5237 2349 c6 -22 23 -26 23 -5 0 8 -6 16 -14 19 -10 4 -12 0 -9 -14z"/>
<path d="M5305 2355 l-30 -13 38 1 c24 0 37 5 37 14 0 16 -7 16 -45 -2z"/>
<path d="M5364 2355 c-9 -22 1 -29 15 -11 8 10 9 16 1 21 -5 3 -13 -1 -16 -10z"/>
<path d="M5408 2239 c-10 -5 -18 -18 -18 -28 0 -16 10 -19 61 -23 45 -3 65
-10 75 -23 19 -26 18 -40 -9 -71 l-23 -26 -17 26 c-17 25 -19 26 -47 11 -15
-8 -31 -23 -33 -32 -3 -10 -5 1 -6 25 -1 41 -2 43 -18 26 -24 -23 -55 -144
-37 -144 20 0 27 -19 13 -36 -10 -12 -9 -13 5 -8 9 3 16 10 16 15 0 5 15 9 33
9 26 0 36 6 50 30 10 17 23 30 29 30 24 0 68 42 65 63 -1 13 3 21 11 20 14 -3
16 13 2 22 -5 3 -10 12 -10 18 0 8 3 8 9 -1 7 -11 9 -10 14 2 5 12 -1 20 -18
26 -18 7 -23 14 -18 27 6 16 5 16 -10 4 -15 -12 -17 -10 -18 15 0 28 -1 28
-10 6 -11 -28 -29 -21 -22 8 4 17 0 20 -23 20 -16 0 -37 -5 -46 -11z m-28
-139 c0 -5 -4 -10 -10 -10 -5 0 -10 5 -10 10 0 6 5 10 10 10 6 0 10 -4 10 -10z
m0 -30 c0 -5 -4 -10 -10 -10 -5 0 -10 5 -10 10 0 6 5 10 10 10 6 0 10 -4 10
-10z m-2 -38 c2 -7 -3 -12 -12 -12 -9 0 -16 7 -16 16 0 17 22 14 28 -4z m29 3
c0 -8 -4 -15 -9 -15 -4 0 -8 7 -8 15 0 8 4 15 8 15 5 0 9 -7 9 -15z m-3 -40
c-4 -8 -10 -15 -15 -15 -5 0 -9 7 -9 15 0 8 7 15 15 15 9 0 12 -6 9 -15z"/>
<path d="M5260 2170 c0 -5 5 -10 11 -10 5 0 7 5 4 10 -3 6 -8 10 -11 10 -2 0
-4 -4 -4 -10z"/>
<path d="M5192 2125 c-10 -22 -9 -25 8 -25 13 0 20 -7 20 -20 0 -14 -6 -20
-22 -19 -21 0 -21 1 -4 8 14 5 16 10 8 15 -7 4 -16 5 -21 2 -5 -3 -14 1 -21 9
-16 20 -47 19 -58 -1 -8 -15 -3 -60 13 -109 3 -11 26 -30 50 -41 43 -21 44
-21 34 -2 -8 15 -7 23 8 34 17 12 17 13 1 14 -21 0 -24 16 -5 23 9 4 9 8 -2
15 -8 6 -9 12 -3 16 13 8 18 0 27 -41 4 -20 13 -33 22 -33 12 0 12 2 -1 16
-14 13 -21 76 -19 152 1 22 -23 13 -35 -13z m-12 -135 c0 -5 -4 -10 -10 -10
-5 0 -10 5 -10 10 0 6 5 10 10 10 6 0 10 -4 10 -10z"/>
<path d="M3515 2120 c5 -15 3 -18 -9 -14 -9 3 -13 11 -10 16 4 6 -2 5 -14 -1
-27 -14 -39 -34 -24 -39 6 -2 8 -11 5 -20 -3 -11 -2 -13 4 -5 5 6 20 16 35 22
26 10 26 9 18 -19 -10 -35 -6 -38 44 -34 61 5 82 36 56 85 -19 35 -39 23 -33
-20 3 -23 1 -41 -6 -45 -7 -5 -11 1 -11 14 0 31 -28 80 -46 80 -11 0 -13 -6
-9 -20z"/>
<path d="M4177 2053 c-15 -17 -13 -18 36 -14 46 3 49 4 32 17 -25 19 -49 18
-68 -3z"/>
<path d="M3919 2018 c-8 -7 -21 -21 -28 -31 -13 -16 -11 -16 22 -2 20 8 47 15
59 15 23 1 23 1 -2 15 -31 18 -33 18 -51 3z"/>
<path d="M5398 1943 c6 -2 18 -2 25 0 6 3 1 5 -13 5 -14 0 -19 -2 -12 -5z"/>
<path d="M5483 1939 c-12 -5 -6 -8 20 -8 20 -1 37 3 37 7 0 10 -33 10 -57 1z"/>
<path d="M5035 1930 c-8 -13 5 -13 25 0 13 8 13 10 -2 10 -9 0 -20 -4 -23 -10z"/>
<path d="M5093 1933 c9 -2 25 -2 35 0 9 3 1 5 -18 5 -19 0 -27 -2 -17 -5z"/>
<path d="M4425 1390 c-10 -11 -18 -37 -19 -60 0 -22 -2 -40 -5 -40 -2 0 -21 5
-42 12 -44 13 -89 0 -89 -26 0 -19 48 -56 82 -63 l28 -5 -26 -31 c-17 -21 -24
-39 -22 -61 4 -46 39 -47 84 -2 l36 36 33 -36 c43 -45 78 -45 83 2 2 22 -5 40
-22 61 l-26 31 28 5 c34 7 82 44 82 63 0 26 -45 39 -89 26 -50 -15 -49 -16
-44 11 6 30 -12 74 -35 86 -15 8 -23 6 -37 -9z m59 -142 c15 -25 -3 -52 -37
-56 -21 -3 -28 2 -33 22 -12 49 43 76 70 34z"/>
</g>
</svg>
