<svg width="114" height="75" viewBox="0 0 114 75" fill="none" xmlns="http://www.w3.org/2000/svg">
<path d="M10.9161 33.9842C54.5709 20.3562 50.725 1.0786 80.1022 0.499725C109.479 -0.0791553 135.625 79.5172 86.7584 74.0458C4.42204 76.7882 -14.9236 68.9718 10.9161 33.9842Z" fill="url(#paint0_radial_7_19)"/>
<path d="M10.9161 33.9842C54.5709 20.3562 50.725 1.0786 80.1022 0.499725C109.479 -0.0791553 135.625 79.5172 86.7584 74.0458C4.42204 76.7882 -14.9236 68.9718 10.9161 33.9842Z" fill="url(#paint1_radial_7_19)"/>
<path d="M10.9161 33.9842C54.5709 20.3562 50.725 1.0786 80.1022 0.499725C109.479 -0.0791553 135.625 79.5172 86.7584 74.0458C4.42204 76.7882 -14.9236 68.9718 10.9161 33.9842Z" fill="url(#paint2_linear_7_19)"/>
<path d="M10.9161 33.9842C54.5709 20.3562 50.725 1.0786 80.1022 0.499725C109.479 -0.0791553 135.625 79.5172 86.7584 74.0458C4.42204 76.7882 -14.9236 68.9718 10.9161 33.9842Z" fill="url(#paint3_radial_7_19)"/>
<path d="M10.9161 33.9842C54.5709 20.3562 50.725 1.0786 80.1022 0.499725C109.479 -0.0791553 135.625 79.5172 86.7584 74.0458C4.42204 76.7882 -14.9236 68.9718 10.9161 33.9842Z" fill="url(#paint4_radial_7_19)"/>
<path d="M10.9161 33.9842C54.5709 20.3562 50.725 1.0786 80.1022 0.499725C109.479 -0.0791553 135.625 79.5172 86.7584 74.0458C4.42204 76.7882 -14.9236 68.9718 10.9161 33.9842Z" fill="url(#paint5_linear_7_19)"/>
<path d="M10.9168 33.9843C54.5716 20.3563 36.4361 25.9365 26.5479 48.9783C16.6596 72.0202 60.6408 74.8465 43.5549 74.08C12.4357 72.6841 -14.9228 68.9719 10.9168 33.9843Z" fill="url(#paint6_radial_7_19)"/>
<path d="M10.9168 33.9843C54.5716 20.3563 36.4361 25.9365 26.5479 48.9783C16.6596 72.0202 60.6408 74.8465 43.5549 74.08C12.4357 72.6841 -14.9228 68.9719 10.9168 33.9843Z" fill="url(#paint7_radial_7_19)"/>
<path d="M10.9168 33.9843C54.5716 20.3563 36.4361 25.9365 26.5479 48.9783C16.6596 72.0202 60.6408 74.8465 43.5549 74.08C12.4357 72.6841 -14.9228 68.9719 10.9168 33.9843Z" fill="url(#paint8_linear_7_19)"/>
<path d="M10.9168 33.9843C54.5716 20.3563 36.4361 25.9365 26.5479 48.9783C16.6596 72.0202 60.6408 74.8465 43.5549 74.08C12.4357 72.6841 -14.9228 68.9719 10.9168 33.9843Z" fill="url(#paint9_radial_7_19)"/>
<path d="M10.9168 33.9843C54.5716 20.3563 36.4361 25.9365 26.5479 48.9783C16.6596 72.0202 60.6408 74.8465 43.5549 74.08C12.4357 72.6841 -14.9228 68.9719 10.9168 33.9843Z" fill="url(#paint10_radial_7_19)"/>
<path d="M10.9168 33.9843C54.5716 20.3563 36.4361 25.9365 26.5479 48.9783C16.6596 72.0202 60.6408 74.8465 43.5549 74.08C12.4357 72.6841 -14.9228 68.9719 10.9168 33.9843Z" fill="url(#paint11_linear_7_19)"/>
<defs>
<radialGradient id="paint0_radial_7_19" cx="0" cy="0" r="1" gradientUnits="userSpaceOnUse" gradientTransform="translate(79.752 30.1811) rotate(151.552) scale(90.4567 189.356)">
<stop offset="0.105" stop-color="#C4C4C4"/>
<stop offset="0.845" stop-color="#5E5E5E"/>
</radialGradient>
<radialGradient id="paint1_radial_7_19" cx="0" cy="0" r="1" gradientUnits="userSpaceOnUse" gradientTransform="translate(89.2328 18.0519) rotate(-53.54) scale(26.59 47.6172)">
<stop stop-color="white" stop-opacity="0.64"/>
<stop offset="0.565" stop-color="white" stop-opacity="0"/>
</radialGradient>
<linearGradient id="paint2_linear_7_19" x1="25.7638" y1="46.4597" x2="24.2185" y2="69.7278" gradientUnits="userSpaceOnUse">
<stop offset="0.815" stop-opacity="0"/>
<stop offset="1" stop-opacity="0.12"/>
</linearGradient>
<radialGradient id="paint3_radial_7_19" cx="0" cy="0" r="1" gradientUnits="userSpaceOnUse" gradientTransform="translate(79.752 30.1811) rotate(151.552) scale(90.4567 189.356)">
<stop offset="0.105" stop-color="#C4C4C4"/>
<stop offset="0.845" stop-color="#5E5E5E"/>
</radialGradient>
<radialGradient id="paint4_radial_7_19" cx="0" cy="0" r="1" gradientUnits="userSpaceOnUse" gradientTransform="translate(89.2328 18.0519) rotate(-53.54) scale(26.59 47.6172)">
<stop stop-color="white" stop-opacity="0.64"/>
<stop offset="0.565" stop-color="white" stop-opacity="0"/>
</radialGradient>
<linearGradient id="paint5_linear_7_19" x1="25.7638" y1="46.4597" x2="24.2185" y2="69.7278" gradientUnits="userSpaceOnUse">
<stop offset="0.815" stop-opacity="0"/>
<stop offset="1" stop-opacity="0.12"/>
</linearGradient>
<radialGradient id="paint6_radial_7_19" cx="0" cy="0" r="1" gradientUnits="userSpaceOnUse" gradientTransform="translate(79.752 30.1811) rotate(151.552) scale(90.4567 189.356)">
<stop offset="0.105" stop-color="#C4C4C4"/>
<stop offset="0.845" stop-color="#5E5E5E"/>
</radialGradient>
<radialGradient id="paint7_radial_7_19" cx="0" cy="0" r="1" gradientUnits="userSpaceOnUse" gradientTransform="translate(89.2328 18.0519) rotate(-53.54) scale(26.59 47.6172)">
<stop stop-color="white" stop-opacity="0.64"/>
<stop offset="0.565" stop-color="white" stop-opacity="0"/>
</radialGradient>
<linearGradient id="paint8_linear_7_19" x1="25.7638" y1="46.4597" x2="24.2185" y2="69.7278" gradientUnits="userSpaceOnUse">
<stop offset="0.815" stop-opacity="0"/>
<stop offset="1" stop-opacity="0.12"/>
</linearGradient>
<radialGradient id="paint9_radial_7_19" cx="0" cy="0" r="1" gradientUnits="userSpaceOnUse" gradientTransform="translate(79.752 30.1811) rotate(151.552) scale(90.4567 189.356)">
<stop offset="0.105" stop-color="#C4C4C4"/>
<stop offset="0.845" stop-color="#5E5E5E"/>
</radialGradient>
<radialGradient id="paint10_radial_7_19" cx="0" cy="0" r="1" gradientUnits="userSpaceOnUse" gradientTransform="translate(89.2328 18.0519) rotate(-53.54) scale(26.59 47.6172)">
<stop stop-color="white" stop-opacity="0.64"/>
<stop offset="0.565" stop-color="white" stop-opacity="0"/>
</radialGradient>
<linearGradient id="paint11_linear_7_19" x1="25.7638" y1="46.4597" x2="24.2185" y2="69.7278" gradientUnits="userSpaceOnUse">
<stop offset="0.815" stop-opacity="0"/>
<stop offset="1" stop-opacity="0.12"/>
</linearGradient>
</defs>
</svg>
