<svg width="146" height="79" viewBox="0 0 146 79" fill="none" xmlns="http://www.w3.org/2000/svg">
<path d="M13.7424 35.6863C69.5379 21.315 64.6225 0.985839 102.17 0.375384C139.717 -0.235071 173.134 83.7029 110.677 77.933C5.44237 80.825 -19.2834 72.5823 13.7424 35.6863Z" fill="url(#paint0_radial_7_16)"/>
<path d="M13.7424 35.6863C69.5379 21.315 64.6225 0.985839 102.17 0.375384C139.717 -0.235071 173.134 83.7029 110.677 77.933C5.44237 80.825 -19.2834 72.5823 13.7424 35.6863Z" fill="url(#paint1_radial_7_16)"/>
<path d="M13.7424 35.6863C69.5379 21.315 64.6225 0.985839 102.17 0.375384C139.717 -0.235071 173.134 83.7029 110.677 77.933C5.44237 80.825 -19.2834 72.5823 13.7424 35.6863Z" fill="url(#paint2_linear_7_16)"/>
<path d="M13.7424 35.6863C69.5379 21.315 64.6225 0.985839 102.17 0.375384C139.717 -0.235071 173.134 83.7029 110.677 77.933C5.44237 80.825 -19.2834 72.5823 13.7424 35.6863Z" fill="url(#paint3_radial_7_16)"/>
<path d="M13.7424 35.6863C69.5379 21.315 64.6225 0.985839 102.17 0.375384C139.717 -0.235071 173.134 83.7029 110.677 77.933C5.44237 80.825 -19.2834 72.5823 13.7424 35.6863Z" fill="url(#paint4_radial_7_16)"/>
<path d="M13.7424 35.6863C69.5379 21.315 64.6225 0.985839 102.17 0.375384C139.717 -0.235071 173.134 83.7029 110.677 77.933C5.44237 80.825 -19.2834 72.5823 13.7424 35.6863Z" fill="url(#paint5_linear_7_16)"/>
<path d="M13.7434 35.6864C69.5389 21.3151 46.3598 27.1996 33.7215 51.4983C21.0833 75.797 77.2959 78.7774 55.4583 77.9691C15.6847 76.4971 -19.2824 72.5824 13.7434 35.6864Z" fill="url(#paint6_radial_7_16)"/>
<path d="M13.7434 35.6864C69.5389 21.3151 46.3598 27.1996 33.7215 51.4983C21.0833 75.797 77.2959 78.7774 55.4583 77.9691C15.6847 76.4971 -19.2824 72.5824 13.7434 35.6864Z" fill="url(#paint7_radial_7_16)"/>
<path d="M13.7434 35.6864C69.5389 21.3151 46.3598 27.1996 33.7215 51.4983C21.0833 75.797 77.2959 78.7774 55.4583 77.9691C15.6847 76.4971 -19.2824 72.5824 13.7434 35.6864Z" fill="url(#paint8_linear_7_16)"/>
<path d="M13.7434 35.6864C69.5389 21.3151 46.3598 27.1996 33.7215 51.4983C21.0833 75.797 77.2959 78.7774 55.4583 77.9691C15.6847 76.4971 -19.2824 72.5824 13.7434 35.6864Z" fill="url(#paint9_radial_7_16)"/>
<path d="M13.7434 35.6864C69.5389 21.3151 46.3598 27.1996 33.7215 51.4983C21.0833 75.797 77.2959 78.7774 55.4583 77.9691C15.6847 76.4971 -19.2824 72.5824 13.7434 35.6864Z" fill="url(#paint10_radial_7_16)"/>
<path d="M13.7434 35.6864C69.5389 21.3151 46.3598 27.1996 33.7215 51.4983C21.0833 75.797 77.2959 78.7774 55.4583 77.9691C15.6847 76.4971 -19.2824 72.5824 13.7434 35.6864Z" fill="url(#paint11_linear_7_16)"/>
<defs>
<radialGradient id="paint0_radial_7_16" cx="0" cy="0" r="1" gradientUnits="userSpaceOnUse" gradientTransform="translate(101.722 31.6757) rotate(155.914) scale(111.347 207.336)">
<stop offset="0.105" stop-color="#C4C4C4"/>
<stop offset="0.845" stop-color="#5E5E5E"/>
</radialGradient>
<radialGradient id="paint1_radial_7_16" cx="0" cy="0" r="1" gradientUnits="userSpaceOnUse" gradientTransform="translate(113.84 18.885) rotate(-48.1548) scale(30.2733 56.3709)">
<stop stop-color="white" stop-opacity="0.64"/>
<stop offset="0.565" stop-color="white" stop-opacity="0"/>
</radialGradient>
<linearGradient id="paint2_linear_7_16" x1="32.7194" y1="48.8422" x2="31.373" y2="73.4139" gradientUnits="userSpaceOnUse">
<stop offset="0.815" stop-opacity="0"/>
<stop offset="1" stop-opacity="0.12"/>
</linearGradient>
<radialGradient id="paint3_radial_7_16" cx="0" cy="0" r="1" gradientUnits="userSpaceOnUse" gradientTransform="translate(101.722 31.6757) rotate(155.914) scale(111.347 207.336)">
<stop offset="0.105" stop-color="#C4C4C4"/>
<stop offset="0.845" stop-color="#5E5E5E"/>
</radialGradient>
<radialGradient id="paint4_radial_7_16" cx="0" cy="0" r="1" gradientUnits="userSpaceOnUse" gradientTransform="translate(113.84 18.885) rotate(-48.1548) scale(30.2733 56.3709)">
<stop stop-color="white" stop-opacity="0.64"/>
<stop offset="0.565" stop-color="white" stop-opacity="0"/>
</radialGradient>
<linearGradient id="paint5_linear_7_16" x1="32.7194" y1="48.8422" x2="31.373" y2="73.4139" gradientUnits="userSpaceOnUse">
<stop offset="0.815" stop-opacity="0"/>
<stop offset="1" stop-opacity="0.12"/>
</linearGradient>
<radialGradient id="paint6_radial_7_16" cx="0" cy="0" r="1" gradientUnits="userSpaceOnUse" gradientTransform="translate(101.722 31.6757) rotate(155.914) scale(111.347 207.336)">
<stop offset="0.105" stop-color="#C4C4C4"/>
<stop offset="0.845" stop-color="#5E5E5E"/>
</radialGradient>
<radialGradient id="paint7_radial_7_16" cx="0" cy="0" r="1" gradientUnits="userSpaceOnUse" gradientTransform="translate(113.84 18.885) rotate(-48.1548) scale(30.2733 56.3709)">
<stop stop-color="white" stop-opacity="0.64"/>
<stop offset="0.565" stop-color="white" stop-opacity="0"/>
</radialGradient>
<linearGradient id="paint8_linear_7_16" x1="32.7194" y1="48.8422" x2="31.373" y2="73.4139" gradientUnits="userSpaceOnUse">
<stop offset="0.815" stop-opacity="0"/>
<stop offset="1" stop-opacity="0.12"/>
</linearGradient>
<radialGradient id="paint9_radial_7_16" cx="0" cy="0" r="1" gradientUnits="userSpaceOnUse" gradientTransform="translate(101.722 31.6757) rotate(155.914) scale(111.347 207.336)">
<stop offset="0.105" stop-color="#C4C4C4"/>
<stop offset="0.845" stop-color="#5E5E5E"/>
</radialGradient>
<radialGradient id="paint10_radial_7_16" cx="0" cy="0" r="1" gradientUnits="userSpaceOnUse" gradientTransform="translate(113.84 18.885) rotate(-48.1548) scale(30.2733 56.3709)">
<stop stop-color="white" stop-opacity="0.64"/>
<stop offset="0.565" stop-color="white" stop-opacity="0"/>
</radialGradient>
<linearGradient id="paint11_linear_7_16" x1="32.7194" y1="48.8422" x2="31.373" y2="73.4139" gradientUnits="userSpaceOnUse">
<stop offset="0.815" stop-opacity="0"/>
<stop offset="1" stop-opacity="0.12"/>
</linearGradient>
</defs>
</svg>
