<svg width="67" height="58" viewBox="0 0 67 58" fill="none" xmlns="http://www.w3.org/2000/svg">
<path d="M60.5722 26.069C34.9992 15.6621 37.2521 0.941035 20.043 0.498982C2.83389 0.0569282 -12.4823 60.8396 16.1438 56.6614C64.3763 58.7556 75.709 52.7867 60.5722 26.069Z" fill="url(#paint0_radial_7_17)"/>
<path d="M60.5722 26.069C34.9992 15.6621 37.2521 0.941035 20.043 0.498982C2.83389 0.0569282 -12.4823 60.8396 16.1438 56.6614C64.3763 58.7556 75.709 52.7867 60.5722 26.069Z" fill="url(#paint1_radial_7_17)"/>
<path d="M60.5722 26.069C34.9992 15.6621 37.2521 0.941035 20.043 0.498982C2.83389 0.0569282 -12.4823 60.8396 16.1438 56.6614C64.3763 58.7556 75.709 52.7867 60.5722 26.069Z" fill="url(#paint2_linear_7_17)"/>
<path d="M60.5722 26.069C34.9992 15.6621 37.2521 0.941035 20.043 0.498982C2.83389 0.0569282 -12.4823 60.8396 16.1438 56.6614C64.3763 58.7556 75.709 52.7867 60.5722 26.069Z" fill="url(#paint3_radial_7_17)"/>
<path d="M60.5722 26.069C34.9992 15.6621 37.2521 0.941035 20.043 0.498982C2.83389 0.0569282 -12.4823 60.8396 16.1438 56.6614C64.3763 58.7556 75.709 52.7867 60.5722 26.069Z" fill="url(#paint4_radial_7_17)"/>
<path d="M60.5722 26.069C34.9992 15.6621 37.2521 0.941035 20.043 0.498982C2.83389 0.0569282 -12.4823 60.8396 16.1438 56.6614C64.3763 58.7556 75.709 52.7867 60.5722 26.069Z" fill="url(#paint5_linear_7_17)"/>
<path d="M60.5722 26.069C34.9992 15.6621 45.6225 19.9234 51.4151 37.519C57.2076 55.1146 31.4435 57.2728 41.4524 56.6876C59.6819 55.6216 75.709 52.7867 60.5722 26.069Z" fill="url(#paint6_radial_7_17)"/>
<path d="M60.5722 26.069C34.9992 15.6621 45.6225 19.9234 51.4151 37.519C57.2076 55.1146 31.4435 57.2728 41.4524 56.6876C59.6819 55.6216 75.709 52.7867 60.5722 26.069Z" fill="url(#paint7_radial_7_17)"/>
<path d="M60.5722 26.069C34.9992 15.6621 45.6225 19.9234 51.4151 37.519C57.2076 55.1146 31.4435 57.2728 41.4524 56.6876C59.6819 55.6216 75.709 52.7867 60.5722 26.069Z" fill="url(#paint8_linear_7_17)"/>
<path d="M60.5722 26.069C34.9992 15.6621 45.6225 19.9234 51.4151 37.519C57.2076 55.1146 31.4435 57.2728 41.4524 56.6876C59.6819 55.6216 75.709 52.7867 60.5722 26.069Z" fill="url(#paint9_radial_7_17)"/>
<path d="M60.5722 26.069C34.9992 15.6621 45.6225 19.9234 51.4151 37.519C57.2076 55.1146 31.4435 57.2728 41.4524 56.6876C59.6819 55.6216 75.709 52.7867 60.5722 26.069Z" fill="url(#paint10_radial_7_17)"/>
<path d="M60.5722 26.069C34.9992 15.6621 45.6225 19.9234 51.4151 37.519C57.2076 55.1146 31.4435 57.2728 41.4524 56.6876C59.6819 55.6216 75.709 52.7867 60.5722 26.069Z" fill="url(#paint11_linear_7_17)"/>
<defs>
<radialGradient id="paint0_radial_7_17" cx="0" cy="0" r="1" gradientUnits="userSpaceOnUse" gradientTransform="translate(57.0776 12.2775) rotate(143.58) scale(68.6009 161.561)">
<stop offset="0.105" stop-color="#C4C4C4"/>
<stop offset="0.845" stop-color="#5E5E5E"/>
</radialGradient>
<radialGradient id="paint1_radial_7_17" cx="0" cy="0" r="1" gradientUnits="userSpaceOnUse" gradientTransform="translate(43.6137 21.3657) rotate(-82.875) scale(27.1374 43.6192)">
<stop stop-color="white" stop-opacity="0.64"/>
<stop offset="0.565" stop-color="white" stop-opacity="0"/>
</radialGradient>
<linearGradient id="paint2_linear_7_17" x1="51.8744" y1="35.5957" x2="53.4079" y2="53.3096" gradientUnits="userSpaceOnUse">
<stop offset="0.815" stop-opacity="0"/>
<stop offset="1" stop-opacity="0.12"/>
</linearGradient>
<radialGradient id="paint3_radial_7_17" cx="0" cy="0" r="1" gradientUnits="userSpaceOnUse" gradientTransform="translate(57.0776 12.2775) rotate(143.58) scale(68.6009 161.561)">
<stop offset="0.105" stop-color="#C4C4C4"/>
<stop offset="0.845" stop-color="#5E5E5E"/>
</radialGradient>
<radialGradient id="paint4_radial_7_17" cx="0" cy="0" r="1" gradientUnits="userSpaceOnUse" gradientTransform="translate(43.6137 21.3657) rotate(-82.875) scale(27.1374 43.6192)">
<stop stop-color="white" stop-opacity="0.64"/>
<stop offset="0.565" stop-color="white" stop-opacity="0"/>
</radialGradient>
<linearGradient id="paint5_linear_7_17" x1="51.8744" y1="35.5957" x2="53.4079" y2="53.3096" gradientUnits="userSpaceOnUse">
<stop offset="0.815" stop-opacity="0"/>
<stop offset="1" stop-opacity="0.12"/>
</linearGradient>
<radialGradient id="paint6_radial_7_17" cx="0" cy="0" r="1" gradientUnits="userSpaceOnUse" gradientTransform="translate(57.0776 12.2775) rotate(143.58) scale(68.6009 161.561)">
<stop offset="0.105" stop-color="#C4C4C4"/>
<stop offset="0.845" stop-color="#5E5E5E"/>
</radialGradient>
<radialGradient id="paint7_radial_7_17" cx="0" cy="0" r="1" gradientUnits="userSpaceOnUse" gradientTransform="translate(43.6137 21.3657) rotate(-82.875) scale(27.1374 43.6192)">
<stop stop-color="white" stop-opacity="0.64"/>
<stop offset="0.565" stop-color="white" stop-opacity="0"/>
</radialGradient>
<linearGradient id="paint8_linear_7_17" x1="51.8744" y1="35.5957" x2="53.4079" y2="53.3096" gradientUnits="userSpaceOnUse">
<stop offset="0.815" stop-opacity="0"/>
<stop offset="1" stop-opacity="0.12"/>
</linearGradient>
<radialGradient id="paint9_radial_7_17" cx="0" cy="0" r="1" gradientUnits="userSpaceOnUse" gradientTransform="translate(57.0776 12.2775) rotate(143.58) scale(68.6009 161.561)">
<stop offset="0.105" stop-color="#C4C4C4"/>
<stop offset="0.845" stop-color="#5E5E5E"/>
</radialGradient>
<radialGradient id="paint10_radial_7_17" cx="0" cy="0" r="1" gradientUnits="userSpaceOnUse" gradientTransform="translate(43.6137 21.3657) rotate(-82.875) scale(27.1374 43.6192)">
<stop stop-color="white" stop-opacity="0.64"/>
<stop offset="0.565" stop-color="white" stop-opacity="0"/>
</radialGradient>
<linearGradient id="paint11_linear_7_17" x1="51.8744" y1="35.5957" x2="53.4079" y2="53.3096" gradientUnits="userSpaceOnUse">
<stop offset="0.815" stop-opacity="0"/>
<stop offset="1" stop-opacity="0.12"/>
</linearGradient>
</defs>
</svg>
