<svg width="60" height="36" viewBox="0 0 60 36" fill="none" xmlns="http://www.w3.org/2000/svg">
<path d="M54.2685 16.4707C31.537 10.0283 33.5396 0.915275 18.2426 0.641622C2.94557 0.36797 -10.6688 37.9953 14.7766 35.4088C57.65 36.7052 67.7234 33.0102 54.2685 16.4707Z" fill="url(#paint0_radial_7_53)"/>
<path d="M54.2685 16.4707C31.537 10.0283 33.5396 0.915275 18.2426 0.641622C2.94557 0.36797 -10.6688 37.9953 14.7766 35.4088C57.65 36.7052 67.7234 33.0102 54.2685 16.4707Z" fill="url(#paint1_radial_7_53)"/>
<path d="M54.2685 16.4707C31.537 10.0283 33.5396 0.915275 18.2426 0.641622C2.94557 0.36797 -10.6688 37.9953 14.7766 35.4088C57.65 36.7052 67.7234 33.0102 54.2685 16.4707Z" fill="url(#paint2_linear_7_53)"/>
<path d="M54.2685 16.4707C31.537 10.0283 33.5396 0.915275 18.2426 0.641622C2.94557 0.36797 -10.6688 37.9953 14.7766 35.4088C57.65 36.7052 67.7234 33.0102 54.2685 16.4707Z" fill="url(#paint3_radial_7_53)"/>
<path d="M54.2685 16.4707C31.537 10.0283 33.5396 0.915275 18.2426 0.641622C2.94557 0.36797 -10.6688 37.9953 14.7766 35.4088C57.65 36.7052 67.7234 33.0102 54.2685 16.4707Z" fill="url(#paint4_radial_7_53)"/>
<path d="M54.2685 16.4707C31.537 10.0283 33.5396 0.915275 18.2426 0.641622C2.94557 0.36797 -10.6688 37.9953 14.7766 35.4088C57.65 36.7052 67.7234 33.0102 54.2685 16.4707Z" fill="url(#paint5_linear_7_53)"/>
<path d="M54.2685 16.4707C31.537 10.0283 40.9799 12.6663 46.1288 23.5588C51.2778 34.4513 28.3763 35.7873 37.2731 35.425C53.4772 34.7651 67.7234 33.0102 54.2685 16.4707Z" fill="url(#paint6_radial_7_53)"/>
<path d="M54.2685 16.4707C31.537 10.0283 40.9799 12.6663 46.1288 23.5588C51.2778 34.4513 28.3763 35.7873 37.2731 35.425C53.4772 34.7651 67.7234 33.0102 54.2685 16.4707Z" fill="url(#paint7_radial_7_53)"/>
<path d="M54.2685 16.4707C31.537 10.0283 40.9799 12.6663 46.1288 23.5588C51.2778 34.4513 28.3763 35.7873 37.2731 35.425C53.4772 34.7651 67.7234 33.0102 54.2685 16.4707Z" fill="url(#paint8_linear_7_53)"/>
<path d="M54.2685 16.4707C31.537 10.0283 40.9799 12.6663 46.1288 23.5588C51.2778 34.4513 28.3763 35.7873 37.2731 35.425C53.4772 34.7651 67.7234 33.0102 54.2685 16.4707Z" fill="url(#paint9_radial_7_53)"/>
<path d="M54.2685 16.4707C31.537 10.0283 40.9799 12.6663 46.1288 23.5588C51.2778 34.4513 28.3763 35.7873 37.2731 35.425C53.4772 34.7651 67.7234 33.0102 54.2685 16.4707Z" fill="url(#paint10_radial_7_53)"/>
<path d="M54.2685 16.4707C31.537 10.0283 40.9799 12.6663 46.1288 23.5588C51.2778 34.4513 28.3763 35.7873 37.2731 35.425C53.4772 34.7651 67.7234 33.0102 54.2685 16.4707Z" fill="url(#paint11_linear_7_53)"/>
<defs>
<radialGradient id="paint0_radial_7_53" cx="0" cy="0" r="1" gradientUnits="userSpaceOnUse" gradientTransform="translate(51.1622 7.9331) rotate(152.805) scale(55.1671 110.55)">
<stop offset="0.105" stop-color="#C4C4C4"/>
<stop offset="0.845" stop-color="#5E5E5E"/>
</radialGradient>
<radialGradient id="paint1_radial_7_53" cx="0" cy="0" r="1" gradientUnits="userSpaceOnUse" gradientTransform="translate(39.1943 13.5591) rotate(-79.8245) scale(16.936 38.4598)">
<stop stop-color="white" stop-opacity="0.64"/>
<stop offset="0.565" stop-color="white" stop-opacity="0"/>
</radialGradient>
<linearGradient id="paint2_linear_7_53" x1="46.5371" y1="22.3681" x2="47.2008" y2="33.3761" gradientUnits="userSpaceOnUse">
<stop offset="0.815" stop-opacity="0"/>
<stop offset="1" stop-opacity="0.12"/>
</linearGradient>
<radialGradient id="paint3_radial_7_53" cx="0" cy="0" r="1" gradientUnits="userSpaceOnUse" gradientTransform="translate(51.1622 7.9331) rotate(152.805) scale(55.1671 110.55)">
<stop offset="0.105" stop-color="#C4C4C4"/>
<stop offset="0.845" stop-color="#5E5E5E"/>
</radialGradient>
<radialGradient id="paint4_radial_7_53" cx="0" cy="0" r="1" gradientUnits="userSpaceOnUse" gradientTransform="translate(39.1943 13.5591) rotate(-79.8245) scale(16.936 38.4598)">
<stop stop-color="white" stop-opacity="0.64"/>
<stop offset="0.565" stop-color="white" stop-opacity="0"/>
</radialGradient>
<linearGradient id="paint5_linear_7_53" x1="46.5371" y1="22.3681" x2="47.2008" y2="33.3761" gradientUnits="userSpaceOnUse">
<stop offset="0.815" stop-opacity="0"/>
<stop offset="1" stop-opacity="0.12"/>
</linearGradient>
<radialGradient id="paint6_radial_7_53" cx="0" cy="0" r="1" gradientUnits="userSpaceOnUse" gradientTransform="translate(51.1622 7.9331) rotate(152.805) scale(55.1671 110.55)">
<stop offset="0.105" stop-color="#C4C4C4"/>
<stop offset="0.845" stop-color="#5E5E5E"/>
</radialGradient>
<radialGradient id="paint7_radial_7_53" cx="0" cy="0" r="1" gradientUnits="userSpaceOnUse" gradientTransform="translate(39.1943 13.5591) rotate(-79.8245) scale(16.936 38.4598)">
<stop stop-color="white" stop-opacity="0.64"/>
<stop offset="0.565" stop-color="white" stop-opacity="0"/>
</radialGradient>
<linearGradient id="paint8_linear_7_53" x1="46.5371" y1="22.3681" x2="47.2008" y2="33.3761" gradientUnits="userSpaceOnUse">
<stop offset="0.815" stop-opacity="0"/>
<stop offset="1" stop-opacity="0.12"/>
</linearGradient>
<radialGradient id="paint9_radial_7_53" cx="0" cy="0" r="1" gradientUnits="userSpaceOnUse" gradientTransform="translate(51.1622 7.9331) rotate(152.805) scale(55.1671 110.55)">
<stop offset="0.105" stop-color="#C4C4C4"/>
<stop offset="0.845" stop-color="#5E5E5E"/>
</radialGradient>
<radialGradient id="paint10_radial_7_53" cx="0" cy="0" r="1" gradientUnits="userSpaceOnUse" gradientTransform="translate(39.1943 13.5591) rotate(-79.8245) scale(16.936 38.4598)">
<stop stop-color="white" stop-opacity="0.64"/>
<stop offset="0.565" stop-color="white" stop-opacity="0"/>
</radialGradient>
<linearGradient id="paint11_linear_7_53" x1="46.5371" y1="22.3681" x2="47.2008" y2="33.3761" gradientUnits="userSpaceOnUse">
<stop offset="0.815" stop-opacity="0"/>
<stop offset="1" stop-opacity="0.12"/>
</linearGradient>
</defs>
</svg>
