<svg width="251" height="116" viewBox="0 0 251 116" fill="none" xmlns="http://www.w3.org/2000/svg">
<g filter="url(#filter0_i_7_51)">
<path d="M34.8043 95.41C34.8043 104.913 27.0988 112.617 17.5936 112.617C8.08833 112.617 0.382812 104.913 0.382812 95.41C0.382812 85.9071 8.08833 78.2034 17.5936 78.2034C27.0988 78.2034 34.8043 85.9071 34.8043 95.41Z" fill="url(#paint0_radial_7_51)"/>
<path d="M50.0138 64.3982C50.0138 76.8846 39.7099 87.0068 26.9994 87.0068C14.2889 87.0068 3.98506 76.8846 3.98506 64.3982C3.98506 51.9118 14.2889 41.7896 26.9994 41.7896C39.7099 41.7896 50.0138 51.9118 50.0138 64.3982Z" fill="url(#paint1_radial_7_51)"/>
<path d="M77.2308 59.5964C77.2308 72.0828 66.9269 82.205 54.2164 82.205C41.506 82.205 31.2021 72.0828 31.2021 59.5964C31.2021 47.11 41.506 36.9878 54.2164 36.9878C66.9269 36.9878 77.2308 47.11 77.2308 59.5964Z" fill="url(#paint2_radial_7_51)"/>
<path d="M124.46 36.1875C124.46 55.6353 108.691 71.4009 89.2383 71.4009C69.7857 71.4009 54.0163 55.6353 54.0163 36.1875C54.0163 16.7397 69.7857 0.974121 89.2383 0.974121C108.691 0.974121 124.46 16.7397 124.46 36.1875Z" fill="url(#paint3_radial_7_51)"/>
<path d="M159.282 48.9924C159.282 68.4402 143.513 84.2057 124.06 84.2057C104.607 84.2057 88.8381 68.4402 88.8381 48.9924C88.8381 29.5445 104.607 13.779 124.06 13.779C143.513 13.779 159.282 29.5445 159.282 48.9924Z" fill="url(#paint4_radial_7_51)"/>
<path d="M194.904 60.1966C194.904 79.6444 179.135 95.41 159.682 95.41C140.23 95.41 124.46 79.6444 124.46 60.1966C124.46 40.7488 140.23 24.9832 159.682 24.9832C179.135 24.9832 194.904 40.7488 194.904 60.1966Z" fill="url(#paint5_radial_7_51)"/>
<path d="M239.932 87.0068C239.932 106.455 239.573 112.617 220.12 112.617C200.667 112.617 184.898 96.851 184.898 77.4031C184.898 57.9553 203.469 63.3978 222.922 63.3978C242.374 63.3978 239.932 67.559 239.932 87.0068Z" fill="url(#paint6_radial_7_51)"/>
<path d="M18.7943 63.3978H222.922V112.617H18.7943V63.3978Z" fill="url(#paint7_radial_7_51)"/>
<path d="M38.6026 98.8894C38.6026 108.018 31.2116 115.418 22.0943 115.418C12.9771 115.418 5.58606 108.018 5.58606 98.8894C5.58606 89.7612 12.9771 82.3613 22.0943 82.3613C31.2116 82.3613 38.6026 89.7612 38.6026 98.8894Z" fill="url(#paint8_radial_7_51)"/>
<path d="M53.1913 69.1003C53.1913 81.0944 43.308 90.8176 31.1163 90.8176C18.9246 90.8176 9.04128 81.0944 9.04128 69.1003C9.04128 57.1063 18.9246 47.3831 31.1163 47.3831C43.308 47.3831 53.1913 57.1063 53.1913 69.1003Z" fill="url(#paint9_radial_7_51)"/>
<path d="M79.2974 64.4878C79.2974 76.4819 69.4141 86.205 57.2224 86.205C45.0307 86.205 35.1474 76.4819 35.1474 64.4878C35.1474 52.4938 45.0307 42.7706 57.2224 42.7706C69.4141 42.7706 79.2974 52.4938 79.2974 64.4878Z" fill="url(#paint10_radial_7_51)"/>
<path d="M124.599 42.0019C124.599 60.6829 109.473 75.8269 90.8148 75.8269C72.1562 75.8269 57.0304 60.6829 57.0304 42.0019C57.0304 23.3208 72.1562 8.17686 90.8148 8.17686C109.473 8.17686 124.599 23.3208 124.599 42.0019Z" fill="url(#paint11_radial_7_51)"/>
<path d="M158 54.3019C158 72.9829 142.874 88.1269 124.215 88.1269C105.557 88.1269 90.4309 72.9829 90.4309 54.3019C90.4309 35.6208 105.557 20.4769 124.215 20.4769C142.874 20.4769 158 35.6208 158 54.3019Z" fill="url(#paint12_radial_7_51)"/>
<path d="M192.168 65.0644C192.168 83.7455 177.042 98.8894 158.384 98.8894C139.725 98.8894 124.599 83.7455 124.599 65.0644C124.599 46.3834 139.725 31.2394 158.384 31.2394C177.042 31.2394 192.168 46.3834 192.168 65.0644Z" fill="url(#paint13_radial_7_51)"/>
<path d="M250.139 81.5926C250.139 100.274 235.013 115.418 216.354 115.418C197.696 115.418 182.57 100.274 182.57 81.5926C182.57 62.9115 197.696 47.7675 216.354 47.7675C235.013 47.7675 250.139 62.9115 250.139 81.5926Z" fill="url(#paint14_radial_7_51)"/>
<path d="M23.2461 68.1394H219.042V115.418H23.2461V68.1394Z" fill="url(#paint15_radial_7_51)"/>
</g>
<defs>
<filter id="filter0_i_7_51" x="-2.98317" y="0.974121" width="253.122" height="117.809" filterUnits="userSpaceOnUse" color-interpolation-filters="sRGB">
<feFlood flood-opacity="0" result="BackgroundImageFix"/>
<feBlend mode="normal" in="SourceGraphic" in2="BackgroundImageFix" result="shape"/>
<feColorMatrix in="SourceAlpha" type="matrix" values="0 0 0 0 0 0 0 0 0 0 0 0 0 0 0 0 0 0 127 0" result="hardAlpha"/>
<feOffset dx="-6.73197" dy="6.73197"/>
<feGaussianBlur stdDeviation="1.68299"/>
<feComposite in2="hardAlpha" operator="arithmetic" k2="-1" k3="1"/>
<feColorMatrix type="matrix" values="0 0 0 0 1 0 0 0 0 1 0 0 0 0 1 0 0 0 0.63 0"/>
<feBlend mode="normal" in2="shape" result="effect1_innerShadow_7_51"/>
</filter>
<radialGradient id="paint0_radial_7_51" cx="0" cy="0" r="1" gradientUnits="userSpaceOnUse" gradientTransform="translate(124.924 48.7711) rotate(90) scale(112.76 246.083)">
<stop offset="0.5" stop-color="#5FAF64"/>
<stop offset="1" stop-color="#28492A"/>
</radialGradient>
<radialGradient id="paint1_radial_7_51" cx="0" cy="0" r="1" gradientUnits="userSpaceOnUse" gradientTransform="translate(124.924 48.7711) rotate(90) scale(112.76 246.083)">
<stop offset="0.5" stop-color="#5FAF64"/>
<stop offset="1" stop-color="#28492A"/>
</radialGradient>
<radialGradient id="paint2_radial_7_51" cx="0" cy="0" r="1" gradientUnits="userSpaceOnUse" gradientTransform="translate(124.924 48.7711) rotate(90) scale(112.76 246.083)">
<stop offset="0.5" stop-color="#5FAF64"/>
<stop offset="1" stop-color="#28492A"/>
</radialGradient>
<radialGradient id="paint3_radial_7_51" cx="0" cy="0" r="1" gradientUnits="userSpaceOnUse" gradientTransform="translate(124.924 48.7711) rotate(90) scale(112.76 246.083)">
<stop offset="0.5" stop-color="#5FAF64"/>
<stop offset="1" stop-color="#28492A"/>
</radialGradient>
<radialGradient id="paint4_radial_7_51" cx="0" cy="0" r="1" gradientUnits="userSpaceOnUse" gradientTransform="translate(124.924 48.7711) rotate(90) scale(112.76 246.083)">
<stop offset="0.5" stop-color="#5FAF64"/>
<stop offset="1" stop-color="#28492A"/>
</radialGradient>
<radialGradient id="paint5_radial_7_51" cx="0" cy="0" r="1" gradientUnits="userSpaceOnUse" gradientTransform="translate(124.924 48.7711) rotate(90) scale(112.76 246.083)">
<stop offset="0.5" stop-color="#5FAF64"/>
<stop offset="1" stop-color="#28492A"/>
</radialGradient>
<radialGradient id="paint6_radial_7_51" cx="0" cy="0" r="1" gradientUnits="userSpaceOnUse" gradientTransform="translate(124.924 48.7711) rotate(90) scale(112.76 246.083)">
<stop offset="0.5" stop-color="#5FAF64"/>
<stop offset="1" stop-color="#28492A"/>
</radialGradient>
<radialGradient id="paint7_radial_7_51" cx="0" cy="0" r="1" gradientUnits="userSpaceOnUse" gradientTransform="translate(124.924 48.7711) rotate(90) scale(112.76 246.083)">
<stop offset="0.5" stop-color="#5FAF64"/>
<stop offset="1" stop-color="#28492A"/>
</radialGradient>
<radialGradient id="paint8_radial_7_51" cx="0" cy="0" r="1" gradientUnits="userSpaceOnUse" gradientTransform="translate(124.924 48.7711) rotate(90) scale(112.76 246.083)">
<stop offset="0.5" stop-color="#5FAF64"/>
<stop offset="1" stop-color="#28492A"/>
</radialGradient>
<radialGradient id="paint9_radial_7_51" cx="0" cy="0" r="1" gradientUnits="userSpaceOnUse" gradientTransform="translate(124.924 48.7711) rotate(90) scale(112.76 246.083)">
<stop offset="0.5" stop-color="#5FAF64"/>
<stop offset="1" stop-color="#28492A"/>
</radialGradient>
<radialGradient id="paint10_radial_7_51" cx="0" cy="0" r="1" gradientUnits="userSpaceOnUse" gradientTransform="translate(124.924 48.7711) rotate(90) scale(112.76 246.083)">
<stop offset="0.5" stop-color="#5FAF64"/>
<stop offset="1" stop-color="#28492A"/>
</radialGradient>
<radialGradient id="paint11_radial_7_51" cx="0" cy="0" r="1" gradientUnits="userSpaceOnUse" gradientTransform="translate(124.924 48.7711) rotate(90) scale(112.76 246.083)">
<stop offset="0.5" stop-color="#5FAF64"/>
<stop offset="1" stop-color="#28492A"/>
</radialGradient>
<radialGradient id="paint12_radial_7_51" cx="0" cy="0" r="1" gradientUnits="userSpaceOnUse" gradientTransform="translate(124.924 48.7711) rotate(90) scale(112.76 246.083)">
<stop offset="0.5" stop-color="#5FAF64"/>
<stop offset="1" stop-color="#28492A"/>
</radialGradient>
<radialGradient id="paint13_radial_7_51" cx="0" cy="0" r="1" gradientUnits="userSpaceOnUse" gradientTransform="translate(124.924 48.7711) rotate(90) scale(112.76 246.083)">
<stop offset="0.5" stop-color="#5FAF64"/>
<stop offset="1" stop-color="#28492A"/>
</radialGradient>
<radialGradient id="paint14_radial_7_51" cx="0" cy="0" r="1" gradientUnits="userSpaceOnUse" gradientTransform="translate(124.924 48.7711) rotate(90) scale(112.76 246.083)">
<stop offset="0.5" stop-color="#5FAF64"/>
<stop offset="1" stop-color="#28492A"/>
</radialGradient>
<radialGradient id="paint15_radial_7_51" cx="0" cy="0" r="1" gradientUnits="userSpaceOnUse" gradientTransform="translate(124.924 48.7711) rotate(90) scale(112.76 246.083)">
<stop offset="0.5" stop-color="#5FAF64"/>
<stop offset="1" stop-color="#28492A"/>
</radialGradient>
</defs>
</svg>
